<svg xmlns="http://www.w3.org/2000/svg" viewBox="0 0 216.84 301.46">
  <defs>
    <style>
      .cls-1 {
        fill: #6c6b86;
      }

      .cls-2 {
        fill: #e26e00;
      }
    </style>
  </defs>
  <title>Asset 7</title>
  <g id="Layer_2" data-name="Layer 2">
    <g id="Layer_13" data-name="Layer 13">
      <path id="antenna" class="cls-1" d="M202,17C200.72,5.24,188-2.31,176.88.64c-6.68,1.78-9.72,8.3-13,10.2-4.46,2.59-13.61-1.77-18.3-2.89-10.09-2.41-21.79-9.64-26.26,2-5,13.12-13,42.57-16.59,42.57-.92.16,9.69,1.53,15.06-.09-4.15-1.11,8.87-38.29,10.8-40.23,1.18-1.18,19.48,4.41,24.07,5.5,8.15,1.95,7.71,2.86,11,9.8,2.67,5.57,6.59,10,12.72,11.83C190.74,43.69,203.48,31.24,202,17ZM182.25,32.29a12.34,12.34,0,0,1-12.33-12.14c0-6.64,5.66-12.46,12.16-12.53s12.26,5.73,12.4,12.34A12.51,12.51,0,0,1,182.25,32.29Z"/>
      <path id="main_body" class="cls-1" d="M212.83,75.25A24.46,24.46,0,0,0,186,65.2c-6.44,1.89-9,5.7-15.58,2.27a128.64,128.64,0,0,0-18.92-8.25c-11.16-3.7-23.07-4.09-34-6.87-3.08-.78-4.88-2.3-8.57-2-2.42.17-2.39.9-4.52,1.73-2.64,1-5.59.76-8.4,1a126.56,126.56,0,0,0-40,9.45c-4.38,1.87-11,7.44-15.82,6.8C37.76,69,35.26,66.73,33,65.86A23.88,23.88,0,0,0,24,64.32,25,25,0,0,0,.72,82.88c-3.49,12.94,6.7,19.74,9.71,31.31,1.7,6.51,1.77,13.26,4.07,19.65a49.16,49.16,0,0,0,9.64,15.85c9.66,10.89,22.4,17.95,35.66,23.52-13.93,9.36-22.91,21.85-23.4,39.11-.4,14.17,3.82,29.36,15.29,38.49,5.38,4.27,12.62,5.87,15.72,12.51.53,1.15,2.28,4.87,1.76,6.12-.63,1.53-9.1,1.46-11,2.07-6.9,2.26-13.18,6.88-15.91,13.8-1.8,4.59-3.21,13.21,2.3,15.47,3.05,1.26,100.85.4,122.16.28,4.6,0,8.68-2.14,9-7.11.31-4.69-2.06-9.53-4.67-13.29-3-4.3-6.74-7.31-11.92-8.4-2.32-.49-4.67-.86-7-1.47-1.31-.34-3.75-.79-4.41-2.19-2.4-5.09,5.1-11,8.48-12.48,15.54-7,23.75-24.19,23.9-40.69.17-18.58-8.77-31.93-23.46-42.27,19.82-8.91,40.44-21.52,46.53-44,1.51-5.55.15-11.32,1.3-16.63.89-4.12,4.83-5.62,7.38-9A24.77,24.77,0,0,0,212.83,75.25ZM11.93,99.4c-10.12-11.5,1-29.76,15.72-27,10.36,2,1.24,6.89-2.63,11.14a57,57,0,0,0-7.38,10.2C16.43,95.92,14.86,102.72,11.93,99.4ZM44.69,221.55c-2.15-14.3,2.39-27.77,13.46-37.25a223.47,223.47,0,0,0,4.62,64.38A37,37,0,0,1,44.69,221.55Zm6.56,72.17c-4.61,0-1.81-5.43-.46-7.57a18.1,18.1,0,0,1,11-7.48c12.87-3.32,16.23,6,22.89,15C73.54,293.71,62.4,293.69,51.25,293.72ZM167.48,290c1.73,6.12-10.31,3.67-13.81,3.66-7.54,0-15.08,0-22.62,0,3.46-3.83,6.19-8,9.28-12.12,2.72-3.6,5.77-4,10.29-3.62C157.83,278.56,165.37,282.69,167.48,290Zm-31.24-17.44c-4.26,8.49-10.19,17.59-19.79,20.41-8.93,2.62-19.17,1.06-26.08-5.36-16.29-15.13-21.68-42.8-23.9-63.84a192.59,192.59,0,0,1,.15-40.38c.8-7.52,1.19-7.5,8.31-5.79a143.63,143.63,0,0,0,19.34,3.3A138.62,138.62,0,0,0,133,179.37c3.38-.62,12.22-4.63,15.11-2.78,2.7,1.74,2.05,12.66,2.21,15.31C151.93,219.25,148.65,247.87,136.24,272.59ZM157.42,183c21,17.68,19.57,51.54-4.13,66.09C158.34,227.39,159.25,205.1,157.42,183Zm29.19-39.42c-20.1,23.43-54.26,31.55-84,30-27.51-1.47-60-9.93-76.36-34.15-19-28.1,3.77-56.46,29.87-68.5,28.06-12.94,63.14-14.29,92.26-4.35,16.73,5.71,33.45,14.86,42.8,30.44C200.44,112.3,198.15,130.12,186.61,143.55Zm17.93-43.33c-2.77,3.31-4.21-3-5.15-4.87A54,54,0,0,0,193,85.7c-3.37-4.09-14.41-10.1-5.27-12.81C204.16,68,214.9,87.86,204.54,100.22Z"/>
      <path id="eye_l" class="cls-2" d="M75.74,90.43a14.73,14.73,0,0,0-14.28,17.92,22.84,22.84,0,0,1,28.77,0,14.94,14.94,0,0,0,.33-3.35A14.66,14.66,0,0,0,75.74,90.43Z"/>
      <path id="eye_r" class="cls-2" d="M141.28,90.42A14.73,14.73,0,0,0,127,108.34a22.84,22.84,0,0,1,28.77,0,14.85,14.85,0,0,0,.33-3.34A14.66,14.66,0,0,0,141.28,90.42Z"/>
      <path id="mouth" class="cls-1" d="M60.14,131.05S75.5,134.7,107,134.7s49.15-3.65,49.15-3.65S141.46,164.33,108,164.33,60.14,131.05,60.14,131.05Z"/>
    </g>
  </g>
</svg>
